<?xml version="1.0" encoding="UTF-8" standalone="no"?>
<svg width="60px" height="65px" viewBox="0 0 60 65" version="1.1" xmlns="http://www.w3.org/2000/svg" xmlns:xlink="http://www.w3.org/1999/xlink">
    <!-- Generator: Sketch 41.2 (35397) - http://www.bohemiancoding.com/sketch -->
    <title>Page 1</title>
    <desc>Created with Sketch.</desc>
    <defs>
        <polygon id="path-1" points="29.9520953 58.559282 0 58.559282 0 0.0599875571 59.9041907 0.0599875571 59.9041907 58.559282 29.9520953 58.559282"></polygon>
        <polygon id="path-3" points="24.6225938 1.13119393 24.6225938 0.0599875571 0.275910862 0.0599875571 0.275910862 1.13119393 24.6225938 1.13119393"></polygon>
    </defs>
    <g id="Welcome" stroke="none" stroke-width="1" fill="none" fill-rule="evenodd">
        <g id="DA-VINCI" transform="translate(-250.000000, -20.000000)">
            <g id="Logo" transform="translate(250.000000, 21.000000)">
                <g id="Page-1">
                    <path d="M20.6738538,51.5377384 C21.21299,51.9480104 21.7805966,52.3218615 22.372349,52.6582203 L29.9519692,45.1479924 L37.531229,52.6578632 C38.1237022,52.3215044 38.6909484,51.9476534 39.2300846,51.5373813 L29.9519692,42.3450023 L20.6738538,51.5377384 L20.6738538,51.5377384 Z" id="Stroke-1" stroke="#FFFFFF"></path>
                    <path d="M17.8450107,30.3492763 L27.1231261,39.5420123 L17.8450107,48.7351055 C18.2526063,49.2610678 18.6919158,49.7623924 19.1643807,50.2308666 L29.9521494,39.5420123 L19.1643807,28.8538722 C18.6915554,29.3216323 18.2526063,29.8229569 17.8450107,30.3492763 L17.8450107,30.3492763 Z" id="Stroke-3" stroke="#FFFFFF"></path>
                    <path d="M39.2303008,27.5461077 C38.691525,27.1361927 38.1235581,26.7623417 37.5318057,26.42634 L29.9521854,33.9358537 L22.3722048,26.4259829 C21.7800921,26.7623417 21.2124855,27.1365498 20.6737097,27.5461077 L29.9521854,36.7392008 L39.2303008,27.5461077 L39.2303008,27.5461077 Z" id="Stroke-5" stroke="#FFFFFF"></path>
                    <path d="M32.7809205,39.5420837 L42.0593962,30.3489906 C41.6514403,29.8230283 41.2124912,29.3217037 40.7396659,28.8532294 L29.9518971,39.5420837 L40.7396659,50.230581 C41.2121308,49.7621067 41.6514403,49.2607821 42.0593962,48.7348198 L32.7809205,39.5420837 L32.7809205,39.5420837 Z" id="Stroke-7" stroke="#FFFFFF"></path>
                    <path d="M43.1901406,32.0318201 L35.6097996,39.542048 L43.1901406,47.052633 C44.4716702,44.8395206 45.2082974,42.277552 45.2082974,39.542048 C45.2082974,36.8076152 44.4716702,34.2449325 43.1901406,32.0318201 L43.1901406,32.0318201 Z" id="Stroke-9" stroke="#FFFFFF"></path>
                    <path d="M35.6097996,53.5578908 L29.9521134,47.9508396 L24.2944271,53.5578908 L24.2385674,53.5578908 C26.0037338,54.264887 27.9310735,54.6573056 29.9521134,54.6573056 C31.9727928,54.6573056 33.9004929,54.264887 35.665299,53.5578908 L35.6097996,53.5578908 L35.6097996,53.5578908 Z" id="Stroke-11" stroke="#FFFFFF"></path>
                    <path d="M24.294355,39.5420837 L16.7143744,32.0322129 C15.4324845,34.2449682 14.6958572,36.8072939 14.6958572,39.5420837 C14.6958572,42.2772307 15.4321241,44.8391993 16.7143744,47.0519546 L24.294355,39.5420837 L24.294355,39.5420837 Z" id="Stroke-13" stroke="#FFFFFF"></path>
                    <path d="M24.294355,25.5269551 L29.9520413,31.1325781 L35.6097276,25.5269551 L35.6673892,25.5269551 C33.9018624,24.8192447 31.9738019,24.4257549 29.9520413,24.4257549 C27.9302807,24.4257549 26.0025806,24.8192447 24.2366934,25.526598 L24.294355,25.526598 L24.294355,25.5269551 L24.294355,25.5269551 Z" id="Stroke-15" stroke="#FFFFFF" stroke-linecap="square" stroke-linejoin="bevel"></path>
                    <path d="M32.6528036,0.095801557 L40.7769657,13.2684264 L49.3923328,27.7668476 C51.8198871,31.2911166 53.147546,35.5055996 53.147546,39.8272032 C53.147546,52.0818041 42.7417855,62.0515219 29.9520773,62.0515219 C23.5570431,62.0515219 17.7584462,59.5591817 13.5581574,55.5350164 C9.358229,51.5108511 6.75660868,45.9548607 6.75660868,39.8279173 C6.75660868,35.507742 8.08174484,31.2946873 10.5893046,27.6415165 L21.2397666,9.76379618 C21.905398,8.65688293 22.3911971,9.44671909 23.5437088,10.0851581 C24.6980224,10.722883 24.595673,10.9692604 23.9300417,12.0747454 L21.8041297,15.602228 L13.2006553,30.0756544 C11.1439374,33.0782459 10.0934147,36.4136255 10.0934147,39.8279173 C10.0934147,45.8823757 13.8785398,51.806147 19.1855713,55.4061146 C22.3861517,57.5774499 26.1402837,58.9039605 29.9513566,58.9039605 C40.0807016,58.9039605 49.8092984,49.5341183 49.8092984,39.8279173 C49.8092984,36.4114831 48.6694002,32.9004257 46.9363081,29.7110872 L38.0791226,15.5679494 L32.1594363,5.45933189" id="Stroke-17" stroke="#FFFFFF" stroke-width="1.031"></path>
                    <polygon id="Fill-19" fill="#FFFFFF" points="53.2416425 57.0071039 44.4363524 57.0071039 44.4363524 56.6500351 52.8812574 56.6500351 52.8812574 11.2137454 39.2194172 11.2137454 39.2194172 10.8566766 53.2416425 10.8566766"></polygon>
                    <polygon id="Fill-21" fill="#FFFFFF" points="15.2097304 57.0071039 6.66247609 57.0071039 6.66247609 10.8566766 20.6627179 10.8566766 20.6627179 11.2137454 7.02286122 11.2137454 7.02286122 56.6500351 15.2097304 56.6500351"></polygon>
                    <g id="Group-25" transform="translate(0.000000, 4.622256)">
                        <mask id="mask-2" fill="white">
                            <use xlink:href="#path-1"></use>
                        </mask>
                        <g id="Clip-24"></g>
                        <polygon id="Fill-23" fill="#FFFFFF" mask="url(#mask-2)" points="59.9041907 58.559282 -0.000108115541 58.559282 -0.000108115541 0.0599875571 31.9372228 0.0599875571 32.5480756 1.13119393 1.0810473 1.13119393 1.0810473 57.4880756 58.8230353 57.4880756 58.8230353 0.595590746 59.9041907 0.595590746"></polygon>
                    </g>
                    <g id="Group-28" transform="translate(35.317744, 4.622256)">
                        <mask id="mask-4" fill="white">
                            <use xlink:href="#path-3"></use>
                        </mask>
                        <g id="Clip-27"></g>
                        <polygon id="Fill-26" fill="#FFFFFF" mask="url(#mask-4)" points="0.275910862 0.0599875571 0.275910862 0.595590746 0.606023648 1.13119393 24.62281 1.13119393 24.62281 0.0599875571"></polygon>
                    </g>
                </g>
            </g>
        </g>
    </g>
</svg>