<svg xmlns="http://www.w3.org/2000/svg" width="42" height="84" viewBox="0 0 42 84">
    <g fill="none" fill-rule="evenodd">
        <path fill="#FFF" d="M21.43 31.77c-3.499 0-6.6-1.803-8.493-4.564 1.096-1.043 2.725-1.84 4.627-2.3a6.226 6.226 0 0 0 3.866 1.35c1.45 0 2.79-.503 3.865-1.35 1.901.46 3.531 1.257 4.628 2.3-1.894 2.76-4.995 4.565-8.493 4.565m-5.426-12.207c0-3.117 2.434-5.652 5.426-5.652 2.991 0 5.425 2.535 5.425 5.652 0 3.116-2.434 5.652-5.425 5.652-2.992 0-5.426-2.536-5.426-5.652m5.426-9.523c5.751 0 10.43 4.874 10.43 10.865 0 1.97-.506 3.82-1.39 5.414-1.08-.977-2.573-1.748-4.295-2.25a6.822 6.822 0 0 0 1.68-4.506c0-3.69-2.882-6.693-6.425-6.693-3.543 0-6.425 3.003-6.425 6.693 0 1.734.637 3.317 1.68 4.507-1.723.5-3.215 1.272-4.296 2.25A11.144 11.144 0 0 1 11 20.905c0-5.991 4.68-10.865 10.43-10.865m0-1.041C15.128 9 10 14.341 10 20.906s5.127 11.906 11.43 11.906c6.302 0 11.43-5.341 11.43-11.906S27.731 9 21.43 9"/>
        <path fill="#1A2C4C" d="M21.43 73.77c-3.499 0-6.6-1.803-8.493-4.564 1.096-1.043 2.725-1.84 4.627-2.3a6.226 6.226 0 0 0 3.866 1.35c1.45 0 2.79-.503 3.865-1.35 1.901.46 3.531 1.257 4.628 2.3-1.894 2.76-4.995 4.565-8.493 4.565m-5.426-12.207c0-3.117 2.434-5.652 5.426-5.652 2.991 0 5.425 2.535 5.425 5.652 0 3.116-2.434 5.652-5.425 5.652-2.992 0-5.426-2.536-5.426-5.652m5.426-9.523c5.751 0 10.43 4.874 10.43 10.865 0 1.97-.506 3.82-1.39 5.414-1.08-.977-2.573-1.748-4.295-2.25a6.822 6.822 0 0 0 1.68-4.506c0-3.69-2.882-6.693-6.425-6.693-3.543 0-6.425 3.003-6.425 6.693 0 1.734.637 3.317 1.68 4.507-1.723.5-3.215 1.272-4.296 2.25A11.144 11.144 0 0 1 11 62.905c0-5.991 4.68-10.865 10.43-10.865m0-1.041C15.128 51 10 56.341 10 62.906s5.127 11.906 11.43 11.906c6.302 0 11.43-5.341 11.43-11.906S27.731 51 21.43 51"/>
    </g>
</svg>